<svg width="24" height="7" viewBox="0 0 24 7" fill="none" xmlns="http://www.w3.org/2000/svg">
<path d="M11.9993 1.66683C13.0119 1.66683 13.8327 2.48764 13.8327 3.50016C13.8327 4.51268 13.0119 5.3335 11.9993 5.3335C10.9868 5.3335 10.166 4.51268 10.166 3.50016C10.166 2.48764 10.9868 1.66683 11.9993 1.66683Z" stroke="#FFCA42" stroke-width="1.5"/>
<path d="M21.1673 1.66683C22.1798 1.66683 23.0007 2.48764 23.0007 3.50016C23.0007 4.51268 22.1798 5.3335 21.1673 5.3335C20.1548 5.3335 19.334 4.51268 19.334 3.50016C19.334 2.48764 20.1548 1.66683 21.1673 1.66683Z" stroke="#FFCA42" stroke-width="1.5"/>
<path d="M2.83333 1.66683C3.84586 1.66683 4.66667 2.48764 4.66667 3.50016C4.66667 4.51268 3.84586 5.3335 2.83333 5.3335C1.82081 5.3335 1 4.51268 1 3.50016C1 2.48764 1.82081 1.66683 2.83333 1.66683Z" stroke="#FFCA42" stroke-width="1.5"/>
</svg>
